<?xml version="1.0" encoding="UTF-8"?>
<svg width="20px" height="20px" viewBox="0 0 20 20" version="1.1" xmlns="http://www.w3.org/2000/svg" xmlns:xlink="http://www.w3.org/1999/xlink">
    <title>图片弹出框-箭头</title>
    <g id="页面-1" stroke="none" stroke-width="1" fill="none" fill-rule="evenodd">
        <g id="2.0补充切图" transform="translate(-1463.000000, -817.000000)" fill-rule="nonzero">
            <g id="编组-4备份-9" transform="translate(1431.000000, 806.000000)">
                <g id="图片弹出框-箭头" transform="translate(32.000000, 11.000000)">
                    <g id="箭头" transform="translate(10.000000, 10.000000) scale(1, -1) translate(-10.000000, -10.000000) ">
                        <rect id="矩形" fill="#000000" opacity="0" x="0" y="0" width="20" height="20"></rect>
                        <path d="M15.125,16.8970588 L2.38602942,4.15808825 C2.17283126,3.94489009 2.17283126,3.59922758 2.38602942,3.38602942 C2.59922758,3.17283126 2.94489009,3.17283126 3.15808825,3.38602942 L15.8970588,16.125 L15.8970588,16.125 L15.8970588,9.72794119 C15.8970588,9.4233724 16.1439606,9.1764706 16.4485294,9.1764706 C16.7530982,9.1764706 17,9.4233724 17,9.72794119 L17,17 C17,17.5522847 16.5522847,18 16,18 L8.72794119,18 C8.4233724,18 8.1764706,17.7530982 8.1764706,17.4485294 C8.1764706,17.1439606 8.4233724,16.8970588 8.72794119,16.8970588 L15.125,16.8970588 L15.125,16.8970588 Z" id="路径" stroke="#FFFFFF" fill="#F5F5F5"></path>
                    </g>
                </g>
            </g>
        </g>
    </g>
</svg>