<?xml version="1.0" encoding="UTF-8"?>
<svg width="20px" height="20px" viewBox="0 0 20 20" version="1.1" xmlns="http://www.w3.org/2000/svg" xmlns:xlink="http://www.w3.org/1999/xlink">
    <title>矩形</title>
    <g id="页面-1" stroke="none" stroke-width="1" fill="none" fill-rule="evenodd">
        <g id="2.0补充切图" transform="translate(-1607.000000, -817.000000)" fill-rule="nonzero">
            <g id="编组-4备份-9" transform="translate(1431.000000, 806.000000)">
                <g id="24gl-mapMarker" transform="translate(176.000000, 11.000000)">
                    <rect id="矩形" fill="#000000" opacity="0" x="0" y="0" width="20" height="20"></rect>
                    <path d="M10,19.1666667 C9.23177084,19.1666667 8.36315104,18.6524739 7.76940104,18.221224 C6.93984375,17.6184896 6.10273438,16.7915365 5.34908854,15.8299479 C4.52018229,14.7722656 3.82695313,13.5873698 3.34466146,12.4032552 C2.78411459,11.0277344 2.5,9.65833334 2.5,8.33333323 C2.5,5.65384139 3.92949188,3.17788871 6.24999997,1.83814272 C8.57050806,0.498396731 11.4294919,0.498396731 13.75,1.83814272 C16.0705081,3.17788871 17.5,5.65384139 17.5,8.33333323 C17.5,9.65833334 17.2158854,11.0277344 16.6553385,12.4032552 C16.1735677,13.5873698 15.4798177,14.7722656 14.6509115,15.8299479 C13.8971354,16.7915364 13.0601562,17.6184896 12.230599,18.221224 C11.636849,18.652474 10.7682292,19.1666667 10,19.1666667 Z M10,1.66666666 C6.32395834,1.66666666 3.33333334,4.65729166 3.33333334,8.33333334 C3.33333334,11.4428386 5.00729168,14.0428386 6.00507813,15.3158854 C6.71171875,16.2175781 7.49127604,16.9890625 8.25924479,17.5470052 C8.94700521,18.046875 9.58151041,18.3333333 10,18.3333333 C10.4184896,18.3333333 11.0529948,18.046875 11.7407552,17.5470052 C12.5089844,16.9890625 13.2882813,16.2175781 13.9949219,15.3158854 C14.9927083,14.0428385 16.6666667,11.4428385 16.6666667,8.33333334 C16.6666667,4.65729168 13.6760417,1.66666666 10,1.66666666 Z M13.3333333,8.33333334 C13.3333333,10.1742188 11.8408854,11.6666667 10,11.6666667 C8.15911457,11.6666667 6.66666666,10.1742187 6.66666666,8.33333334 C6.66666666,6.49244793 8.15911457,5 10,5 C11.8408854,5 13.3333333,6.49244791 13.3333333,8.33333334 Z M10,5.83333334 C8.61979166,5.83333334 7.5,6.953125 7.5,8.33333334 C7.5,9.71354168 8.61979166,10.8333333 10,10.8333333 C11.3802083,10.8333333 12.5,9.71354168 12.5,8.33333334 C12.5,6.953125 11.3802083,5.83333334 10,5.83333334 L10,5.83333334 Z" id="形状" stroke="#FFFFFF" fill="#F5F5F5"></path>
                </g>
            </g>
        </g>
    </g>
</svg>