<?xml version="1.0" encoding="UTF-8"?>
<svg width="20px" height="20px" viewBox="0 0 20 20" version="1.1" xmlns="http://www.w3.org/2000/svg" xmlns:xlink="http://www.w3.org/1999/xlink">
    <title>矩形</title>
    <g id="页面-1" stroke="none" stroke-width="1" fill="none" fill-rule="evenodd">
        <g id="2.0补充切图" transform="translate(-1655.000000, -817.000000)" fill-rule="nonzero">
            <g id="编组-4备份-9" transform="translate(1431.000000, 806.000000)">
                <g id="橡皮" transform="translate(224.000000, 11.000000)">
                    <rect id="矩形" fill="#000000" opacity="0" x="0" y="0" width="20" height="20"></rect>
                    <path d="M11.1851033,16.4875676 L11.2793059,16.5834234 C11.3578082,16.6633033 11.4609825,16.7043844 11.5641569,16.7043844 C11.6673312,16.7043844 11.7705056,16.6633033 11.8490078,16.5834234 L18.4902963,9.82558559 C19.1699012,9.13405405 19.1699012,8.00660661 18.4902963,7.31507508 L12.7977633,1.52036036 C12.468054,1.18486486 12.0306844,1 11.5641569,1 C11.0976294,1 10.6602598,1.18486486 10.3305505,1.52036036 L3.68926202,8.28048048 C3.61300271,8.35807808 3.57038722,8.46078078 3.57038722,8.57033033 C3.57038722,8.67987988 3.61300271,8.78258258 3.68926202,8.86018018 L3.78346469,8.95603604 L1.60110277,11.1766967 C1.27139341,11.5121922 1.08971683,11.9572372 1.08971683,12.431952 C1.08971683,12.9066667 1.27139341,13.3517117 1.60110277,13.6872072 L6.53552849,18.7082282 C6.77327809,18.9501502 7.06710071,19.1121922 7.38559546,19.1829429 L1.40148282,19.1829429 C1.17943366,19.1829429 1,19.3655255 1,19.5914715 C1,19.8174174 1.17943366,20 1.40148282,20 L17.7725616,20 C17.9946108,20 18.1740444,19.8174174 18.1740444,19.5914715 C18.1740444,19.3655255 17.9946108,19.1829429 17.7725616,19.1829429 L8.15043145,19.1829429 C8.4689262,19.1099099 8.76274882,18.9478679 9.00049843,18.7082282 L11.1851033,16.4875676 Z M10.9002523,2.10006006 C11.2658484,1.72804805 11.8624653,1.72804805 12.2280614,2.10006006 L17.9205944,7.89249249 C18.0977851,8.07279279 18.1964736,8.31243243 18.1964736,8.56804805 C18.1964736,8.82366366 18.0977851,9.0633033 17.9205944,9.2436036 L11.5641569,15.7138739 L11.4699542,15.618018 L4.63801751,8.66618619 L4.54381483,8.57033033 L10.9002523,2.10006006 Z M7.76913492,18.406967 C7.51792779,18.406967 7.28242111,18.3065465 7.10523037,18.1262462 L2.17080465,13.1052252 C1.99361391,12.9249249 1.89492539,12.6852853 1.89492539,12.4296697 C1.89492539,12.1740541 1.99361391,11.9344144 2.17080465,11.7541141 L4.35316657,9.53345345 L10.6154014,15.9055856 L8.43303947,18.1262462 C8.25584873,18.3088288 8.02034205,18.406967 7.76913492,18.406967 L7.76913492,18.406967 Z" id="形状" stroke="#FFFFFF" fill="#FFFFFF"></path>
                </g>
            </g>
        </g>
    </g>
</svg>