<?xml version="1.0" encoding="UTF-8"?>
<svg width="20px" height="20px" viewBox="0 0 20 20" version="1.1" xmlns="http://www.w3.org/2000/svg" xmlns:xlink="http://www.w3.org/1999/xlink">
    <title>功能框-标注</title>
    <g id="页面-1" stroke="none" stroke-width="1" fill="none" fill-rule="evenodd">
        <g id="2.0补充切图" transform="translate(-1511.000000, -817.000000)" fill-rule="nonzero">
            <g id="编组-4备份-9" transform="translate(1431.000000, 806.000000)">
                <g id="文字" transform="translate(80.000000, 11.000000)">
                    <rect id="矩形" fill="#000000" opacity="0" x="0" y="0" width="20" height="20"></rect>
                    <path d="M15.32854,1.00000094 C15.5844499,0.999481868 15.7983612,1.21478049 15.8214839,1.49614264 C15.8446066,1.77750479 15.6692861,2.03178839 15.41747,2.08212158 L15.32854,2.09084835 L8.90582007,2.09084835 L8.90582007,18.4535457 C8.90629109,18.7360629 8.71126925,18.972215 8.45640574,18.9977418 C8.20154223,19.0232686 7.97120703,18.8297198 7.9256142,18.5517218 L7.91770932,18.4535457 L7.91770932,2.09084835 L1.49498936,2.09084835 C1.23907952,2.09136835 1.02516818,1.87606972 1.00204549,1.59470758 C0.978922792,1.31334543 1.15424327,1.05906184 1.4060594,1.00872865 L1.49498936,1.00000094 L15.32854,1.00000094 L15.32854,1.00000094 Z M10.0008894,9.52620623 C9.72672335,9.52673747 9.49755188,9.30678223 9.47277965,9.0193346 C9.44800741,8.73188697 9.635835,8.47210357 9.90561533,8.42068174 L10.0008894,8.41176526 L18.4696988,8.41176526 C18.7438649,8.41123496 18.9730363,8.6311902 18.9978086,8.91863783 C19.0225808,9.20608547 18.8347532,9.46586888 18.5649729,9.51729071 L18.4696988,9.52620623 L14.7645947,9.52620623 L14.7645947,18.4417264 C14.7650994,18.7303542 14.556165,18.9716141 14.2831198,18.997693 C14.0100746,19.0237719 13.7633076,18.8260367 13.7144623,18.542026 L13.7059935,18.4417264 L13.7059935,9.52620623 L10.0008894,9.52620623 L10.0008894,9.52620623 Z" id="形状" stroke="#FFFFFF" fill="#F5F5F5"></path>
                </g>
            </g>
        </g>
    </g>
</svg>